<?xml version="1.0" standalone="no"?>
<!DOCTYPE svg PUBLIC "-//W3C//DTD SVG 1.1//EN" "http://www.w3.org/Graphics/SVG/1.1/DTD/svg11.dtd" >
<svg xmlns="http://www.w3.org/2000/svg">
<metadata>
This is a custom SVG webfont generated by Font Squirrel.
Copyright   : Generated in 2011 by FontLab Studio Copyright info pending
</metadata>
<defs>
<font id="WisdomScriptAIRegular" horiz-adv-x="1005" >
<font-face units-per-em="2048" ascent="1536" descent="-512" />
<missing-glyph horiz-adv-x="624" />
<glyph unicode=" "  horiz-adv-x="624" />
<glyph unicode="&#x09;" horiz-adv-x="624" />
<glyph unicode="&#xa0;" horiz-adv-x="624" />
<glyph unicode="!" horiz-adv-x="661" d="M29 102.5q0 53.5 35.5 89t87.5 35.5q53 0 88.5 -35.5t35.5 -89.5q0 -51 -35.5 -86.5t-89 -35.5t-88 34.5t-34.5 88zM162 311l669 1164h213l-667 -1164h-215z" />
<glyph unicode="&#x22;" horiz-adv-x="724" d="M205 1108l4 82h12q37 0 77 20.5t58 49.5q-47 8 -74.5 35.5t-27.5 66.5q0 55 32.5 84t75.5 29q47 0 84 -31t37 -84q0 -104 -84 -178t-180 -74h-14zM512 1108l4 82h12q37 0 77 20.5t59 49.5q-47 8 -75 35.5t-28 66.5q0 55 33 84t76 29q47 0 84 -31t37 -84q0 -104 -84 -178 t-181 -74h-14z" />
<glyph unicode="#" horiz-adv-x="1538" d="M80 276l82 144h287l118 205h-284l82 143h284l148 256h192l-147 -256h258l147 256h193l-148 -256h277l-82 -143h-277l-116 -205h272l-82 -144h-272l-158 -276h-195l158 276h-256l-158 -276h-194l158 276h-287zM643 420h256l119 205h-258z" />
<glyph unicode="$" horiz-adv-x="870" d="M24.5 186.5q-30.5 102.5 20.5 225.5h178q-57 -86 -23.5 -183.5t132.5 -97.5q47 0 90 43t43 119q0 27 -10.5 58.5t-19.5 51t-32.5 60.5t-31.5 57q-61 115 -62 211q0 160 92.5 246t216.5 86q23 0 72 -8l121 211h160l-154 -269q100 -80 101 -202q0 -78 -41 -166h-179 q47 82 47 149q0 59 -33.5 95t-80.5 36t-90 -43t-43 -118q0 -27 10 -59t19.5 -51.5t33 -60t31.5 -57.5q61 -115 61 -211q0 -160 -92 -246t-217 -86q-23 0 -59 5l-101 -179h-159l127 224q-97 57 -127.5 159.5z" />
<glyph unicode="%" horiz-adv-x="1177" d="M-94 0h215l1147 1024h-213zM319 868.5q0 73.5 50.5 124.5t124 51t125 -51t51.5 -124.5t-51.5 -124t-125 -50.5t-124 50.5t-50.5 124zM438 868.5q0 -22.5 16.5 -39t39 -16.5t39 16.5t16.5 39t-16.5 39t-39 16.5t-39 -16.5t-16.5 -39zM524 151.5q0 73.5 50.5 125t124 51.5 t124.5 -51.5t51 -125t-51 -124t-124.5 -50.5t-124 50.5t-50.5 124zM643 151.5q0 -22.5 16.5 -39t39 -16.5t39 16.5t16.5 39t-16.5 39t-39 16.5t-39 -16.5t-16.5 -39z" />
<glyph unicode="&#x26;" horiz-adv-x="800" d="M-104 -197l112 199q-92 51 -106.5 158.5t71.5 273.5q123 217 297 250q-86 115 15 287q80 139 169 187t214 52l96 166h160l-111 -194q84 -47 108.5 -142.5t-28.5 -210.5h-209l18 31q74 125 23 191q-43 53 -125 8q-68 -37 -123 -131l-24 -43q-45 -92 -15.5 -141.5 t97.5 -49.5l-58 -98q-188 0 -284 -162l-72 -123q-72 -127 -6 -174q55 -41 137 6q53 29 86 86l41 72l211 2l-8 -16l-23 -41q-78 -133 -188.5 -203t-220.5 -74l-95 -166h-159z" />
<glyph unicode="'" horiz-adv-x="358" d="M268 1098l4 82h13q37 0 76.5 20.5t58.5 48.5q-47 8 -75 36t-28 67q0 55 33 83.5t76 28.5q47 0 84 -30.5t37 -83.5q0 -104 -84 -178t-180 -74h-15z" />
<glyph unicode="(" horiz-adv-x="774" d="M44 133q-5 170 41 345t142.5 354.5t223.5 329t295.5 264t349.5 165.5l73 -53q-127 -57 -252.5 -157.5t-228 -222.5t-195 -264t-152.5 -282.5t-101 -277.5t-41 -249t26 -198l-112 -53q-64 129 -69 299z" />
<glyph unicode=")" horiz-adv-x="962" d="M-215 -113q127 57 254 157.5t230.5 222.5t195.5 264.5t153.5 282.5t103.5 277.5t42 249t-27 197.5l113 53q63 -129 68.5 -299t-41 -345t-142.5 -354t-223 -328.5t-296 -264.5t-349 -166z" />
<glyph unicode="*" horiz-adv-x="983" d="M172 1012l72 125h248l-123 217l108 59l121 -213l125 215h145l-161 -278h319l-72 -125h-247l122 -215l-108 -62l-123 215l-123 -213h-143l157 275h-317z" />
<glyph unicode="+" horiz-adv-x="1116" d="M133 467l82 143h320l174 299h192l-174 -299h324l-82 -143h-324l-194 -338h-195l195 338h-318z" />
<glyph unicode="," horiz-adv-x="258" d="M29 -152l4 82h12q37 0 77 20.5t58 49.5q-47 8 -74.5 35.5t-27.5 66.5q0 55 32.5 84t75.5 29q47 0 84 -30.5t37 -84.5q0 -104 -84 -178t-180 -74h-14z" />
<glyph unicode="-" horiz-adv-x="1062" d="M133 467l82 143h733l-82 -143h-733z" />
<glyph unicode="." horiz-adv-x="493" d="M53 96q0 49 34 84t83 35t84 -35t35 -84t-35 -82.5t-84 -33.5t-83 33.5t-34 82.5z" />
<glyph unicode="/" horiz-adv-x="1167" d="M-94 0l1601 1432h213l-1599 -1432h-215z" />
<glyph unicode="0" horiz-adv-x="890" d="M-2 313q18 59 55 121l92 158l105 182q88 154 186.5 216.5t227.5 62.5q100 0 167.5 -62.5t75.5 -160t-53 -212.5l-215 -372q-121 -211 -320 -262q-162 -45 -266 41q-116 98 -55 288zM195 137q55 -41 137 6q53 29 86 86l272 469q74 125 23 191q-43 53 -125 8 q-68 -37 -123 -131l-103 -174l-161 -281q-72 -127 -6 -174z" />
<glyph unicode="1" horiz-adv-x="702" d="M-164 0l82 143h176l387 670q-86 -47 -227 -86l-45 133l43 14q37 12 45 16l41 15q33 12 43 17.5t39 16.5t43 19.5t38.5 20.5t42 24.5t39 26.5t42.5 31l82 -187l-422 -731h188l-82 -143h-555z" />
<glyph unicode="2" horiz-adv-x="956" d="M-143 0l80 137q172 39 293.5 92.5t248.5 167t230 287.5q72 121 20 186q-43 53 -123 11q-66 -35 -119 -123l-59 -94h-217l80 139q111 197 303 231q158 29 262 -63q117 -104 57 -279q-14 -41 -36 -82q-104 -188 -257 -304t-309 -169h375l-80 -137h-749z" />
<glyph unicode="3" horiz-adv-x="937" d="M-155.5 -31.5q8.5 111.5 79.5 201.5h201q-86 -102 -86 -225q0 -76 70 -99q94 -31 196 74q41 43 78 105q76 139 51.5 233t-119.5 94l80 137q119 0 188.5 37t118.5 123q59 106 52.5 177t-74.5 71q-98 0 -186 -149l-43 -74h-218l56 100q88 154 186 216.5t227 62.5 q84 0 142.5 -42t81 -105.5t14.5 -141.5t-47 -146q-68 -119 -144.5 -176t-181.5 -75q53 -74 57.5 -169.5t-57.5 -213.5q-168 -291 -473 -291q-125 0 -191.5 82t-58 193.5z" />
<glyph unicode="4" horiz-adv-x="948" d="M-178 133q549 424 1026 903l22 25l82 -187l-422 -731h211l-82 -143h-210l-164 -287h-189l164 287h-393zM63 143h279l317 549q-293 -311 -596 -549z" />
<glyph unicode="5" horiz-adv-x="878" d="M-166 14q10 35 31 70l47 84h209l-78 -139q-70 -123 -4 -170q55 -41 145 10q63 39 105 111l168 294q33 57 37 109.5t-18.5 81.5t-56.5 39t-79 -10.5t-86 -69.5l-14 14l-90 86l290 500h551l-94 -164h-369l-133 -233q10 2 35 2q100 0 167 -62.5t75 -159t-51 -212.5 l-146 -258q-113 -201 -311 -236q-160 -31 -266 59q-117 96 -64 254z" />
<glyph unicode="6" horiz-adv-x="917" d="M14 305q10 33 29 66l47 84l320 563q96 170 245.5 223t254 -16.5t94.5 -212.5l-152 -11q18 88 -51 107q-76 20 -162 -53q-37 -33 -64 -80l-40 -72q39 12 90 12q100 0 158.5 -61t57.5 -161.5t-63 -211.5l-145 -258q-113 -201 -307 -237q-156 -27 -256 61q-113 98 -56 258z M197 145q55 -41 145 11q63 39 104 110l168 295q33 57 36 108.5t-20.5 78t-58 35t-81 -19.5t-84.5 -85l-127 -223l-78 -140q-70 -123 -4 -170z" />
<glyph unicode="7" horiz-adv-x="788" d="M-164 -287q344 580 838 1145h-537l94 166h594l93 -150q-20 -20 -55.5 -56t-138.5 -156.5t-203.5 -247.5t-233.5 -318.5t-242 -382.5h-209z" />
<glyph unicode="8" horiz-adv-x="897" d="M25 317q18 55 53 117l41 72q117 207 307 242q-12 35 -12 75q0 90 63 197q72 127 153 178t187 51q86 0 141.5 -56t55.5 -146q0 -88 -56 -185q-92 -154 -229 -205q94 -129 -6 -307l-59 -104q-121 -211 -318 -264q-164 -43 -266 43q-118 97 -55 292zM219 137q55 -41 137 6 q53 29 86 86l117 201q74 125 23 191q-43 53 -125 8q-68 -37 -123 -131l-82 -140l-27 -47q-72 -127 -6 -174zM598 881q-45 -78 2 -117q43 -33 100 10q25 18 43 51l84 148q53 90 9 133q-39 37 -101 -14q-33 -27 -59 -74z" />
<glyph unicode="9" horiz-adv-x="915" d="M-106 12l151 11q-18 -88 51 -107q76 -20 162 53q37 33 64 80l40 72q-43 -12 -90 -12q-137 0 -181 132t48 302l146 258q113 199 305 235q154 31 256 -57q113 -98 57 -258q-12 -33 -31 -68l-47 -84l-319 -563q-96 -170 -250 -223t-263 16.5t-99 212.5zM233.5 331.5 q-6.5 -57.5 18 -81t63.5 -25.5t88.5 31t88.5 90l126 223l78 140q70 123 4 170q-55 41 -145 -11q-63 -39 -104 -110l-168 -295q-43 -74 -49.5 -131.5z" />
<glyph unicode=":" horiz-adv-x="765" d="M29 96q0 49 33.5 84t83 35t84 -35t34.5 -84t-34.5 -82.5t-84 -33.5t-83 33.5t-33.5 82.5zM438 731q0 49 34 84t83 35t84 -35t35 -84t-35 -83t-84 -34t-83 34t-34 83z" />
<glyph unicode=";" horiz-adv-x="727" d="M29 -152l4 82h12q37 0 77 20.5t58 49.5q-47 8 -74.5 35.5t-27.5 66.5q0 55 32.5 84t75.5 29q47 0 84 -30.5t37 -84.5q0 -104 -84 -178t-180 -74h-14zM397 667.5q0 49.5 34 84t83 34.5t84 -34.5t35 -84t-35 -83t-84 -33.5t-83 33.5t-34 83z" />
<glyph unicode="&#x3c;" horiz-adv-x="1095" d="M18 436l72 127l1071 481l-114 -204l-805 -383l389 -334l-82 -143z" />
<glyph unicode="=" horiz-adv-x="1003" d="M123 313l82 144h549l-82 -144h-549zM272 569l82 144h549l-82 -144h-549z" />
<glyph unicode="&#x3e;" horiz-adv-x="1095" d="M-66 -20l115 204l805 383l-389 334l82 143l530 -456l-71 -127z" />
<glyph unicode="?" horiz-adv-x="1001" d="M109 96q0 49 33.5 84t82.5 35t84 -35t35 -84t-35 -82.5t-84 -33.5t-82.5 33.5t-33.5 82.5zM242 311l202 353l17 30q397 186 483 434q49 143 -20 205q-68 55 -170 -14q-121 -80 -205 -287l-164 29q68 266 272 391q166 104 316 57q147 -47 174 -213q4 -31 4 -63 q0 -162 -150.5 -332t-384.5 -305h2l-161 -285h-215z" />
<glyph unicode="@" horiz-adv-x="1775" d="M-35 641q102 303 361 489q307 223 698 170q166 -23 284.5 -92t177 -166.5t77 -214t-6 -234.5t-84 -228.5t-144.5 -196.5t-199.5 -137t-237.5 -51q-80 0 -128 37.5t-56 101.5q-170 -139 -295 -139q-127 0 -171 92t25 211l299 516q66 113 170.5 179t194.5 66 q98 0 163.5 -70.5t59.5 -144.5h121l-344 -602q-33 -63 -24 -89.5t48 -26.5q113 0 215.5 72.5t169 182t90 243.5t-4 254t-132 215.5t-276.5 125.5q-326 57 -606 -164q-227 -180 -318 -450q-96 -297 33 -516q121 -201 407 -264q104 -23 205 -24t193 20.5t176 54.5t166 87 t149.5 105t140 122t125 127t115.5 128l15 16q23 -10 46 -31.5t33 -41.5q-115 -139 -233.5 -252t-260.5 -212t-284.5 -154.5t-305.5 -78t-323 16.5q-377 80 -509 375q-119 258 -15 573zM427 137.5q9 -26.5 48 -26.5q70 0 160 75.5t184 223.5l166 290q57 106 -2 154 q-55 43 -137 -6q-59 -33 -98 -103l-297 -518q-33 -63 -24 -89.5z" />
<glyph unicode="A" horiz-adv-x="2035" d="M48 597q24 130 97 257q113 195 305 275q110 46 215 47q79 0 156 -26q180 -60 260 -247l-170 -65q-49 121 -157 159q-42 15 -87 15q-71 0 -148 -37q-126 -61 -214 -213q-61 -106 -77 -214q-5 -37 -5 -71q0 -66 20 -122q30 -85 110.5 -138t199.5 -53q111 0 232.5 80 t232 204.5t225.5 273t225.5 291t215 254t213.5 166.5q70 35 134 34q36 0 70 -11l-422 -1229q-14 -43 -17 -65.5t2 -30.5t22 -8q29 0 125 88t210 219l15 16q23 -10 46 -31.5t34 -41.5q-111 -129 -177.5 -199t-157.5 -132t-165 -62t-109 44q-34 43 -33 106q0 67 29 153l76 217 h-287q-184 -246 -360 -383t-379 -137q-131 0 -237.5 49t-171 135t-92.5 194q-15 59 -15 124q0 55 11 115zM1368 602h246l213 604q-53 -55 -116.5 -134t-109 -141.5t-120 -168t-113.5 -160.5z" />
<glyph unicode="B" horiz-adv-x="1554" d="M45 554q14 122 79.5 232.5t174.5 180.5l86 -109q-154 -98 -184 -293q-7 -42 -7 -81q0 -146 89 -265q43 53 82 121l573 991q70 121 165 185.5t187 64.5q203 0 275 -140q32 -62 31 -130q0 -85 -50 -177q-90 -167 -295 -237q98 -66 147 -171q44 -95 43 -197v-22 q-5 -114 -58.5 -230.5t-142.5 -208t-223 -149.5t-288 -58q-178 0 -320.5 62.5t-223.5 160.5t-117 223q-27 90 -27 179q0 34 4 68zM418 98q131 -74 307 -73q147 0 268 76.5t175.5 189t60.5 231.5v18q0 108 -70 197q-76 96 -219 127l-57 6l-359 -620q-53 -89 -106 -152z M954 995q168 4 264.5 48t155.5 157q32 60 32 110q0 43 -24 79q-30 46 -75 45q-22 0 -47 -11q-72 -29 -134 -133z" />
<glyph unicode="C" horiz-adv-x="1101" d="M39 1059q0 240 219 397l70 -125q-137 -106 -138 -268q0 -92 49.5 -174t141.5 -129l332 571q70 121 165 185.5t187 64.5q121 0 202 -88t81 -229q0 -135 -86 -287q-119 -207 -294 -308.5t-360 -101.5q-55 0 -121 11l-59 -105q-61 -112 -61 -195q0 -37 12 -67 q39 -100 156 -100q279 0 552 319l15 16q57 -16 80 -73q-102 -119 -190.5 -197t-223.5 -137t-285 -59q-145 0 -229 83q-82 82 -82 200q0 122 72 261l63 111q-127 66 -197.5 180.5t-70.5 243.5zM565 709h43q156 0 293 99t209 226t72 232q0 131 -117 131q-102 0 -193 -156z" />
<glyph unicode="D" horiz-adv-x="1918" d="M27 8q0 94 78.5 165t220.5 71q109 0 235 -62l23 41l616 1065q-4 0 -14 1t-17 1q-121 0 -224 -42t-166.5 -108.5t-98.5 -146.5q-28 -63 -28 -127q0 -17 2 -33q9 -81 59 -145l-123 -110q-80 72 -106 184q-10 46 -10 93q0 68 22 137q37 118 117.5 222.5t225 171t322.5 66.5 q440 0 619 -299q96 -161 95 -365q0 -102 -24 -215q-66 -319 -282 -534q-219 -219 -498 -219q-90 0 -177 24.5t-135 48t-126 68.5q-135 -170 -342 -170q-125 0 -194.5 63.5t-69.5 153.5zM213 18q0 -27 26.5 -45t75.5 -18q63 0 100.5 20.5t67.5 65.5q-96 39 -178 39 q-43 0 -67.5 -18.5t-24.5 -43.5zM721 94q190 -111 346 -110q129 0 248 79.5t200.5 202.5t124.5 275q38 133 38 255q0 18 -1 35q-6 139 -78.5 256t-209.5 166z" />
<glyph unicode="E" horiz-adv-x="1398" d="M31 307q0 301 218 502q208 191 477 191q14 0 28 -1q-41 82 -41 166q0 162 102.5 269.5t257.5 107.5q145 0 245.5 -83t100.5 -224q0 -74 -31.5 -138.5t-62.5 -92.5l-31 -27l-114 121q4 0 20.5 14t34.5 51t18 82q0 109 -94 146q-35 15 -69 14q-56 0 -109 -39 q-90 -66 -90 -207q0 -66 31.5 -119t55 -72.5t46.5 -31.5q0 -2 4 -2l-63 -111q-31 10 -68 29q-75 27 -151 27q-81 0 -163 -30q-161 -58 -266.5 -205.5t-105.5 -332.5q0 -170 125 -276.5t289 -106.5q109 0 205 57.5t144 142.5t56 181q1 11 1 21q0 84 -58 155l125 88 q97 -114 97 -260q0 -142 -74 -261q-75 -120 -213 -202.5t-298 -82.5q-248 0 -413.5 147t-165.5 393z" />
<glyph unicode="F" horiz-adv-x="1550" d="M29 252q0 193 147.5 329t341.5 136v-162q-129 0 -222 -85t-93 -210q0 -117 91 -192.5t222 -75.5q123 0 240.5 72.5t204.5 222.5l215 375h-203l55 102h205l317 551q-41 -16 -97 -25.5t-87 -10.5q-15 -1 -43.5 -1t-69.5 1q-82 1 -98 1q-446 0 -446 -215v-14h-183 q-2 12 -2 36q0 123 85 206t198 114t242 31q16 0 89 -1q36 -1 60 -1t36 1q24 1 86 4t96 9t85 17.5t94 30t84 42.5l111 -186h-2l-340 -590h176l-55 -102h-180l-240 -416q-127 -221 -293 -325.5t-338 -104.5q-205 0 -347 128t-142 308z" />
<glyph unicode="G" horiz-adv-x="1359" d="M45 1059q0 240 219 397l70 -125q-137 -106 -137 -268q0 -92 49 -174t141 -129l332 571q70 121 165 185.5t187 64.5q258 0 328 -184q23 -60 23 -127q0 -118 -72 -256q-117 -225 -349 -350q-180 -96 -387 -97q-55 0 -120 11l-60 -105q-82 -140 -82 -234q0 -14 2 -28 q14 -100 125 -100q215 0 408 340l22 36h213l-270 -462q225 96 494 405l14 16q23 -10 46.5 -31.5t33.5 -41.5q-332 -385 -672 -492l-164 -280q-45 -76 -107.5 -122t-123.5 -56q-25 -4 -49 -3q-34 0 -66 8q-53 13 -87 56t-34 102q0 221 467 365l55 96q-109 -68 -231 -67 q-143 0 -211 82q-57 70 -57 170q0 18 2 37q12 124 88 255l63 111q-127 66 -197.5 180.5t-70.5 243.5zM309 -375q0 -29 20 -41q9 -6 21 -6t27 7q29 13 49 50l96 172q-213 -82 -213 -182zM571 709h43q276 0 465 202q137 147 148 306q1 10 0 19q0 124 -101 153q-25 8 -55 8 q-102 0 -192 -156z" />
<glyph unicode="H" horiz-adv-x="2271" d="M41 252q-21 72 -21 144q0 142 82 284q41 70 92.5 121t96.5 75.5t85 40t62 17.5l23 2l39 -158q-16 -4 -44 -14t-90.5 -58.5t-101.5 -113.5q-59 -100 -58 -194q0 -84 46 -165q82 -145 264 -186q54 -11 108 -11q187 0 371 138q162 123 287 342l432 750q-86 -43 -248.5 -85 t-281.5 -88t-162 -120q-31 -63 -31 -109q0 -19 5 -36q17 -56 61 -83l45 -26l-80 -137q-57 23 -105.5 63.5t-82.5 98.5q-32 54 -32 126v13q3 80 52 166q49 84 135 137t192.5 82.5t218 56.5t240.5 81t232 134l108 -186l-342 -590h320l303 522q72 123 158 191.5t161 80.5 q28 4 55 4q46 0 90 -13q69 -19 114 -64t59 -99l-141 -77q-31 70 -83 85q-14 4 -28 4q-41 0 -88 -33q-63 -44 -121 -144l-704 -1221h-215l380 662h-319l-137 -240q-254 -440 -621 -547q-103 -30 -201 -30q-166 0 -317 85q-201 115 -262 322z" />
<glyph unicode="I" horiz-adv-x="1028" d="M12 -512l1024 1778q-86 -43 -248.5 -85t-281.5 -88t-162 -120q-31 -63 -31 -109q0 -19 5 -36q17 -56 63 -83l43 -26l-80 -137q-57 23 -105.5 63.5t-82.5 98.5q-32 54 -32 126v13q3 80 52 166q49 84 135 137t192.5 82.5t218.5 56.5t241 81t231 134l109 -186l-1072 -1866 h-219z" />
<glyph unicode="J" horiz-adv-x="1392" d="M51 428q0 57 10.5 109.5t39 98.5t53 81t77 74.5t84 63.5t104.5 60.5t105.5 53t118.5 56.5t117 54q25 12 134.5 63.5t148 70t131 66.5t144.5 81t121.5 82t125.5 98l121 -139l-803 -1376q227 96 495 405l15 16q23 -10 46 -31.5t34 -41.5q-330 -385 -674 -492l-162 -280 q-45 -76 -107.5 -122t-123.5 -56q-25 -4 -49 -3q-34 0 -66 8q-53 13 -87 56t-34 102q0 225 469 365l735 1280q-33 -25 -66.5 -48.5t-78.5 -49t-72 -40t-87 -43t-76.5 -36.5t-89.5 -40t-79 -36q-41 -18 -126 -54t-128 -56.5t-109.5 -55.5t-102 -64.5t-73.5 -71.5t-54.5 -91 t-16.5 -107q0 -96 54.5 -156.5t136.5 -60.5q117 0 196 113l98 -96q-43 -76 -125.5 -120t-175.5 -44q-160 0 -254 102t-94 252zM342 -375q0 -29 19 -41q9 -6 21 -6t28 7q29 13 49 50l98 172q-215 -82 -215 -182z" />
<glyph unicode="K" horiz-adv-x="2172" d="M57 252q-21 72 -21 144q0 142 83 284q41 70 92 121t96 75.5t85 40t63 17.5l22 2l39 -158q-16 -4 -44 -14t-90.5 -58.5t-100.5 -113.5q-59 -100 -59 -194q0 -84 46 -165q82 -145 264 -186q54 -11 108 -11q187 0 372 138q162 123 286 342l433 750q-86 -43 -249 -85 t-282 -88t-162 -120q-31 -63 -30 -109q0 -19 5 -36q17 -56 60 -83l45 -26l-80 -137q-57 23 -105 63.5t-83 98.5q-32 54 -32 126v13q3 80 52 166q49 84 135.5 137t193 82.5t218 56.5t240.5 81t231 134l109 -186l-318 -551q34 -7 67 -8q203 0 365 282l87 150 q70 123 155.5 192.5t162.5 79.5q26 4 52 4q48 0 93 -13q69 -19 114 -64.5t59 -98.5l-141 -78q-23 51 -59 74q-26 16 -56 16q-12 0 -24 -3q-43 -9 -90 -54t-90 -121l-88 -155q-88 -158 -183.5 -243t-253.5 -93q80 -81 80 -193q0 -114 -84 -260l-315 -547q-25 -32 -25 -85v-15 q4 -63 54 -88l-91 -156q-84 43 -121 119q-31 62 -32 128q0 14 2 29q8 81 53 158l316 547q59 104 59 187q0 123 -131 198l-156 -270q-254 -440 -620 -547q-103 -30 -202 -30q-166 0 -317 85q-201 115 -262 322z" />
<glyph unicode="L" horiz-adv-x="1568" d="M-61 174.5q0 108.5 76.5 188t213.5 79.5q166 0 332 -149q6 8 16.5 25.5t12.5 21.5l170 295q-129 66 -200 179.5t-71 244.5q0 240 220 397l69 -125q-137 -106 -137 -268q0 -92 49 -174t141 -129l332 571q70 121 165 185.5t188 64.5q121 0 201.5 -88t80.5 -229 q0 -135 -86 -287q-119 -207 -294 -308.5t-359 -101.5q-55 0 -121 11l-188 -328q-16 -29 -58 -88q117 -125 119 -125q219 -221 330.5 -306t224.5 -85q176 0 295 116l104 -110q-4 -6 -14 -18.5t-47 -42t-79 -53t-113.5 -42t-149.5 -18.5q-72 0 -148.5 27.5t-135 63.5 t-137.5 104.5t-123 113.5t-126 133t-114 121q-160 -133 -338 -133q-143 0 -222 79t-79 187.5zM96 172q0 -41 32 -70.5t91 -29.5q131 0 232 90q-137 117 -242 117q-51 0 -82 -32t-31 -75zM1016 709h43q156 0 293 99t208.5 226t71.5 232q0 131 -116 131q-102 0 -193 -156z" />
<glyph unicode="M" horiz-adv-x="1914" d="M15 883q3 80 53 166q49 84 135 137t192.5 82.5t218 56.5t240.5 81t231 134l109 -186l-57 -101q193 242 366 242q90 0 132 -73q19 -33 20 -75q0 -49 -27 -110q203 258 381 258q96 0 136 -79q16 -31 16 -68q0 -58 -37 -131l-789 -1367q-25 -32 -25 -84q0 -8 1 -16 q4 -63 53 -88l-90 -156q-84 43 -122 119q-31 62 -31 128q0 14 1 29q8 81 54 159l733 1273q29 50 29 79q0 24 -19 34q-10 6 -23 6q-59 0 -180 -112q-135 -125 -299 -355l-2 -2l-495 -864h-218l701 1214q28 50 28 80q0 23 -18 33q-10 6 -23 6q-60 0 -184 -114 q-129 -119 -282 -334l-508 -885h-219l729 1266q-86 -43 -249 -85t-280.5 -88t-160.5 -120q-31 -63 -31 -109q0 -19 5 -36q17 -56 60 -83l45 -26l-79 -137q-57 23 -105.5 63.5t-83.5 98.5q-32 54 -32 126v13z" />
<glyph unicode="N" horiz-adv-x="2267" d="M55 383q-16 70 -16 140q0 170 96 337q70 121 179.5 203t230.5 107q77 16 153 17q42 0 84 -5q117 -14 211 -88t137 -191l-149 -78q-51 125 -179 164q-52 16 -105 16q-79 0 -161 -34q-138 -57 -214 -189q-79 -137 -80 -261q0 -82 34 -159q68 -156 236 -198q57 -15 114 -15 q167 0 343 127q186 135 334 394l462 805h213l-155 -1020l481 831q72 123 156 191.5t156 80.5q27 4 53 4q44 0 86 -13q66 -19 108.5 -64t56.5 -99l-141 -77q-31 70 -83 85q-14 4 -28 4q-41 0 -88 -33q-63 -44 -120 -144l-705 -1221h-215l154 1014l-197 -344 q-311 -539 -694 -674q-116 -41 -222 -41q-152 0 -284 84q-189 121 -242 344z" />
<glyph unicode="O" horiz-adv-x="1159" d="M41 205q16 109 86 229l340 590h104q-4 27 -3 54q0 126 77 257q133 233 348 271q39 7 76 7q126 0 221 -83q107 -92 107 -230q0 -34 -6 -71q-14 -78 -62 -160l-164 -285q182 35 344 181l60 -117q-219 -201 -486 -205l-227 -397q-154 -266 -387 -344q-80 -28 -150 -28 q-94 0 -169 50q-113 75 -113 221q0 29 4 60zM258 72q37 -34 91 -34q41 0 91 19q121 45 195 172l254 443q-195 61 -279 223l-336 -584q-53 -91 -52 -153q0 -53 36 -86zM769 954q46 -123 189 -163l207 358q45 76 45 141q0 51 -28 94q-43 68 -118 69q-15 0 -32 -3 q-129 -20 -221 -193q-58 -118 -58 -211q0 -50 16 -92z" />
<glyph unicode="P" horiz-adv-x="1355" d="M29 0l829 1434h213l-383 -666q70 -80 179 -98q25 -4 51 -5q86 0 179 49q120 62 199 201q96 178 96 328v21q-7 158 -114 243.5t-238 112.5q-35 7 -70 7q-100 0 -209 -54q-148 -74 -239 -234q-33 -59 -57.5 -121.5t-30.5 -95.5l-8 -32l-145 22q14 158 100 307 q164 283 455 340q68 13 133 14q175 0 334 -96q211 -127 260 -352q13 -58 12 -118q0 -171 -105 -355q-84 -147 -203.5 -229t-235.5 -92q-23 -2 -45 -1q-91 0 -176 30q-105 38 -177 116l-389 -676h-215z" />
<glyph unicode="Q" horiz-adv-x="1513" d="M47 125q0 88 77 151.5t214 63.5q152 0 352 -156q135 80 255 208t204 272q146 252 146 440q0 84 -29 156q-63 152 -232 178q-33 5 -66 5q-152 0 -298 -116q-106 -82 -183 -213q-74 -129 -99 -234q-15 -60 -14 -107q0 -36 8 -64q19 -66 59 -105t98 -55l-29 -141 q-170 14 -254 137q-75 110 -75 250q0 17 1 34q10 162 94 308q201 344 502 442q101 32 195 32q139 0 262 -71q201 -115 244 -354q10 -56 10 -115q0 -229 -154 -493q-88 -156 -218 -291t-281 -228q23 -20 89 -81.5t95 -86l87 -73.5t95 -71.5t87 -50.5t95.5 -39t90.5 -11 q176 0 294 116l105 -110q-4 -6 -14.5 -18.5t-47 -42t-78.5 -53t-114 -42t-150 -18.5q-72 0 -148.5 25.5t-134 56t-137 94t-121.5 102.5t-126 119t-115 109q-178 -76 -340 -76q-141 0 -221 64.5t-80 152.5zM207 135q0 -27 31.5 -45t89.5 -18q96 0 207 39q-123 86 -218 86 q-51 0 -80.5 -18.5t-29.5 -43.5z" />
<glyph unicode="R" horiz-adv-x="1359" d="M29 0l798 1382h213l-313 -542q101 -44 194 -44q80 0 152 32q158 71 244 249q45 91 45 171q0 88 -55 161q-104 139 -295 139q-266 0 -381 -250q-33 -68 -41 -124l-180 28q2 10 6 29.5t22.5 75t44 105.5t73.5 111.5t108.5 105.5t150.5 74t197 30q334 0 471 -222 q68 -112 68 -246q0 -78 -23 -163q-63 -223 -252 -344q-137 -86 -305 -88q77 -82 77 -193q0 -115 -83 -260l-316 -547q-25 -32 -25 -85q0 -8 1 -15q4 -63 53 -88l-90 -156q-84 43 -122 119q-31 62 -31 128q0 14 1 29q8 81 53 158l316 547q61 106 61 189q0 146 -188 223l-16 6 l-418 -725h-215z" />
<glyph unicode="S" horiz-adv-x="1802" d="M20 109l64 79q95 -65 209 -65q44 0 92 10q-35 94 -37 197v11q0 96 33 185q35 94 97.5 171t163.5 122t224 45q164 0 281 -112l301 295q20 330 108.5 494.5t278.5 164.5q100 0 151 -61q34 -42 34 -102q0 -28 -8 -59q-24 -99 -126 -198l-246 -242q-8 -133 -8 -354 q0 -389 -180 -647t-504 -258q-336 0 -499 231q-75 -18 -143 -18q-165 0 -286 111zM526 374q-2 -20 -2 -40q0 -70 29 -135q76 47 139 106l357 350q-80 63 -183 64q-100 0 -179 -50.5t-115 -127t-46 -167.5zM621 88q113 -133 327 -133q236 0 363 203.5t127 531.5v158 l-209 -207q47 -84 46 -181q0 -31 -4 -63q-19 -133 -124 -217l-88 90q91 87 91 185q0 45 -20 92l-325 -320q-92 -88 -184 -139zM1659 1255l86 84q106 101 105 159q0 13 -5 24q-12 23 -43 22q-102 0 -143 -289z" />
<glyph unicode="T" horiz-adv-x="1337" d="M49 218q29 108 127 196l115 -111q-79 -81 -80 -158q0 -29 11 -57q40 -104 190 -104q203 0 376 303l607 1059q-150 -80 -330 -80q-29 0 -119 4t-115 4q-133 0 -220 -67.5t-87 -155.5q0 -109 103 -166l-105 -131q-84 45 -127 118.5t-43 157.5q0 178 146.5 293t378.5 115 q23 0 105.5 -1t107.5 -1q100 0 204.5 25.5t159.5 51.5l53 27l111 -186h-2l-639 -1108q-250 -430 -590 -430q-117 0 -206 59t-125 148q-20 49 -20 103q0 44 13 92z" />
<glyph unicode="U" horiz-adv-x="1585" d="M39 872q0 123 69.5 209t192.5 138.5t254 92.5t288.5 98t264.5 130l109 -186l-539 -932q-71 -122 -71 -194q0 -42 24 -68q24 -27 63 -27q45 0 109 35q123 68 227 227l623 1080h213l-717 -1248q-26 -50 -26 -76q0 -8 2 -14q9 -27 49 -26q123 0 397 319l14 16 q23 -10 46.5 -31.5t33.5 -41.5q-338 -393 -555 -393q-84 0 -133 41.5t-53 109.5q-84 -72 -169 -108.5t-155 -37.5h-4q-67 0 -115 34q-49 36 -67 101q-8 27 -8 61q0 47 15 107q26 103 97 228l455 791q-70 -35 -182.5 -72t-202.5 -66.5t-177 -69.5t-136.5 -97.5t-49.5 -133.5 q0 -47 29 -83.5t57 -51.5l27 -14l-80 -137q-88 35 -153.5 111.5t-65.5 178.5z" />
<glyph unicode="V" horiz-adv-x="1431" d="M57 979q74 203 357 301q35 12 71 23q375 104 576 237l121 -139l-267 -924l555 809q82 115 171.5 181.5t163.5 78.5q31 5 61 5q42 0 80 -10q66 -17 106.5 -59t54.5 -96l-141 -77q-38 85 -102 85q-14 0 -30 -4q-85 -24 -187 -169l-869 -1221h-190l379 1325 q-70 -39 -182.5 -78t-208 -69.5t-186.5 -70.5t-144 -100.5t-53 -138.5q0 -94 65 -140q44 -31 98 -31q26 0 55 8q87 23 144 106l98 -96q-43 -76 -126 -120t-175 -44q-170 0 -262 133q-56 82 -56 174q0 58 23 121z" />
<glyph unicode="W" horiz-adv-x="1916" d="M35 872q0 123 69.5 209t192.5 138.5t254 92.5t288.5 98t264.5 130l108 -186l-606 -1051q-52 -90 -52 -147q0 -29 13 -50q15 -23 42 -22q36 0 93 41q96 72 207 246l637 1104h213l-717 -1248q-27 -47 -26.5 -79.5t26.5 -51.5q20 -14 46 -14q44 0 106 41q88 59 160 184 l565 979q72 123 158 191.5t161 80.5q28 4 55 4q46 0 90 -13q69 -19 114 -64t59 -99l-141 -77q-31 70 -83 85q-14 4 -28 4q-41 0 -88 -33q-63 -44 -121 -144l-524 -918q-70 -123 -163 -204t-182 -107q-72 -22 -139 -22q-15 0 -30 1q-80 6 -133.5 52.5t-67.5 115.5 q-156 -167 -302 -167q-13 0 -26 1q-115 12 -149 119q-13 38 -13 79q0 86 58 185l545 951q-70 -35 -181.5 -72t-201.5 -66.5t-178.5 -69.5t-137.5 -97.5t-49 -133.5q0 -47 29 -83.5t57 -51.5l27 -14l-80 -137q-88 35 -153.5 111.5t-65.5 178.5z" />
<glyph unicode="X" horiz-adv-x="1572" d="M129 186l154 47q16 -74 66 -99q23 -12 50 -11q33 0 73 16q73 31 149 117l374 424l70 637q-68 -31 -186.5 -70t-208.5 -70.5t-180.5 -74.5t-140.5 -102.5t-50 -131.5q0 -94 66 -140q44 -31 97 -31q26 0 55 8q87 23 145 106l98 -96q-43 -76 -126 -120t-175 -44 q-170 0 -262 133q-56 82 -56 174q0 59 23 121q74 203 356 301q35 12 72 23q375 104 575 237l121 -139l-49 -414l-16 -67l39 59l307 342q98 109 207 154q78 32 144 32q26 0 49 -5q85 -17 144.5 -72.5t71.5 -135.5l-153 -47q-16 74 -66 100q-22 12 -49 11q-33 0 -73 -17 q-73 -31 -150 -116l-494 -551l-49 -422q-2 -19 -2 -35q0 -77 54 -76h9q96 12 261 189q47 49 86 100l14 16q23 -10 46 -31.5t34 -41.5q-135 -188 -326 -310q-137 -88 -228 -87q-55 0 -93 32q-59 53 -60 184q0 41 6 91l11 94l10 49l-29 -43l-199 -223q-96 -111 -205 -156 q-79 -32 -145 -32q-25 0 -49 4q-84 17 -144.5 73.5t-72.5 136.5z" />
<glyph unicode="Y" horiz-adv-x="1519" d="M27 872q0 123 69.5 209t192.5 138.5t254 92.5t288.5 98t264.5 130l108 -186l-538 -932q-70 -122 -71 -195q0 -44 26 -69q24 -25 61 -25q46 0 113 37q143 82 254 276l2 -2l587 1029h213l-841 -1448q227 96 495 405l15 16q23 -10 46 -31.5t33 -41.5q-330 -385 -673 -492 l-162 -280q-45 -76 -107.5 -122t-124.5 -56q-25 -4 -48 -3q-34 0 -66 8q-53 13 -87 56t-34 102q0 225 469 365l72 123q-117 -78 -224 -86q-14 -1 -27 -1q-87 0 -139.5 47t-52.5 149q0 16 1 33q9 128 110 300l455 791q-70 -35 -182.5 -72t-203 -66.5t-177.5 -69.5t-136 -97.5 t-49 -133.5q0 -47 28.5 -83.5t57.5 -51.5l27 -14l-80 -137q-88 35 -153.5 111.5t-65.5 178.5zM469 -375q0 -29 19 -41q9 -6 21 -6t28 7q29 13 49 50l98 172q-215 -82 -215 -182z" />
<glyph unicode="Z" horiz-adv-x="1269" d="M47 -414q0 225 473 367q9 20 10 36q0 28 -25 49q-36 30 -89 30h-13h-4h-2l2 2l-14 127q147 27 298 125t264.5 230t185 287.5t71.5 290.5q0 166 -119 220q-43 20 -89 19q-84 0 -179 -64q-207 -141 -297 -492q-41 -160 -49 -352l-152 -15q-4 61 -4 119q0 423 224 703 q172 215 407 260q54 11 103 11q146 0 245 -97q115 -111 115 -314q0 -283 -217 -584.5t-565 -422.5l-9 -2q57 -47 66 -121q145 45 279.5 148.5t291.5 283.5l15 16q23 -10 46 -31.5t34 -41.5q-336 -387 -678 -494q-10 -35 -37 -84l-113 -196q-43 -76 -106.5 -122t-125.5 -56 q-24 -4 -48 -3q-36 0 -70 9q-55 14 -90 57t-35 102zM219 -375q0 -29 20 -41q9 -6 20 -6q12 0 27 7q28 13 50 50l100 172q-217 -84 -217 -182z" />
<glyph unicode="[" horiz-adv-x="1075" d="M-231 -373l1282 2220h462l-96 -168h-250l-1087 -1884h248l-97 -168h-462z" />
<glyph unicode="\" horiz-adv-x="745" d="M90 1432h154l391 -1432h-152z" />
<glyph unicode="]" horiz-adv-x="1075" d="M-231 -373l96 168h250l1087 1884h-248l97 168h462l-1282 -2220h-462z" />
<glyph unicode="_" horiz-adv-x="815" d="M-82 -256l82 143h815l-82 -143h-815z" />
<glyph unicode="a" d="M-120 72q-17 36 -17 75q0 63 43 136l299 516q66 113 170 179t194 66q98 0 164 -70q60 -65 60 -132v-13h120l-344 -602q-26 -50 -25 -76q0 -8 2 -14q9 -27 48 -26q123 0 397 319l15 16q23 -10 46 -31.5t33 -41.5q-338 -393 -555 -393q-80 0 -128 37.5t-56 101.5 q-170 -139 -295 -139q-127 0 -171 92zM67 137q9 -27 48 -26q70 0 160 75.5t184 223.5l166 290q28 52 28 91t-30 63q-26 20 -58 20q-36 0 -80 -26q-59 -33 -98 -103l-297 -518q-26 -50 -25 -76q0 -8 2 -14z" />
<glyph unicode="b" horiz-adv-x="927" d="M-84 197q0 109 76 237l602 1041h217l-270 -469q70 47 139 47q88 0 140 -53.5t52 -137.5q0 -102 -79 -244l-201 -346q182 4 321 158l15 16q23 -10 46 -31.5t34 -41.5q-78 -92 -206 -149.5t-231 -57.5q-31 0 -47 2q-76 -98 -172 -148.5t-190 -50.5q-106 0 -176 61t-70 167z M102 201q0 -39 25 -60.5t61 -21.5q98 0 162 102q-109 68 -135 221l-76 -131q-37 -67 -37 -110zM322 518q0 -125 90 -192l217 372q41 70 41 127q0 43 -22.5 68t-57.5 25q-88 0 -178 -140.5t-90 -259.5z" />
<glyph unicode="c" horiz-adv-x="792" d="M-46 113q-31 56 -31 118q0 86 59 185l223 383q141 246 399 245q137 0 194 -98q23 -41 23 -90q0 -70 -47 -156l-31 -53h-174l31 53q40 71 41 117q0 35 -25 55q-19 16 -44 17q-36 0 -85 -33q-57 -37 -100 -111l-219 -380q-43 -84 -43 -141q0 -30 12 -51q35 -62 142 -62 q109 0 243.5 90t255.5 229l15 16q23 -10 46 -31.5t33 -41.5q-147 -172 -318 -282.5t-339 -110.5q-188 0 -261 133z" />
<glyph unicode="d" d="M-120 72q-17 36 -17 75q0 63 43 136l299 516q66 113 170 179t194 66q125 0 195 -110l313 541h213l-721 -1248q-26 -50 -25 -76q0 -8 2 -14q9 -27 48 -26q123 0 397 319l15 16q23 -10 46 -31.5t33 -41.5q-338 -393 -555 -393q-80 0 -128 37.5t-56 101.5 q-170 -139 -295 -139q-127 0 -171 92zM67 137q9 -27 48 -26q72 0 165 79.5t185 231.5l162 278h-2q28 52 28 91t-30 63q-26 20 -58 20q-36 0 -80 -26q-59 -33 -98 -103l-297 -518q-26 -50 -25 -76q0 -8 2 -14z" />
<glyph unicode="e" horiz-adv-x="792" d="M-46 113q-31 56 -31 118q0 86 59 185l223 383q141 246 399 245q137 0 194 -98q23 -41 23 -90q0 -70 -47 -156l-31 -53q-57 -98 -134 -162.5t-152 -86.5q-72 -21 -138 -20h-7q-69 1 -124 23l-20 -36q-43 -84 -43 -141q0 -30 12 -51q35 -62 142 -62q109 0 243.5 90 t255.5 229l15 16q23 -10 46 -31.5t33 -41.5q-147 -172 -318 -282.5t-339 -110.5q-188 0 -261 133zM250 506q35 -12 71 -14q6 0 12 -1q31 0 67 9q44 10 88 48t81 99l31 53q40 71 41 117q0 35 -25 55q-19 16 -44 17q-36 0 -85 -33q-57 -37 -100 -111z" />
<glyph unicode="f" horiz-adv-x="761" d="M-487 -612q-26 46 -27 97q0 69 47 150l881 1530q133 231 313 291q49 16 90 16q72 0 119 -51q44 -47 43 -117q0 -69 -41 -161q-14 -29 -31 -58l-342 -591q-133 -227 -430 -383q358 27 613 319l14 16q23 -10 46 -31.5t34 -41.5q-283 -328 -733 -355q14 -40 13 -80 q0 -67 -38 -135l-160 -280q-115 -201 -258 -215q-9 -1 -17 -1q-89 0 -136 81zM-322 -530q8 -7 18 -7q23 0 56 39q14 16 27 39l178 314q35 66 35 106q0 36 -27 53h-18l-242 -413q-38 -66 -38 -102q-1 -19 11 -29zM33 164q219 96 403 414l332 575q38 70 38 107q0 25 -18 36 q-10 6 -21 7q-35 0 -87 -56q-37 -37 -70 -92z" />
<glyph unicode="g" horiz-adv-x="950" d="M-272 -414q0 221 467 365l59 100q-115 -72 -203 -71q-127 0 -171 92q-17 36 -17 75q0 63 43 136l299 516q66 113 170 179t194 66q94 0 159 -66.5t65 -137.5h125l-478 -815q227 96 496 405l14 16q23 -10 46.5 -31.5t33.5 -41.5q-330 -385 -674 -492l-161 -280 q-45 -76 -107.5 -122t-124.5 -56q-25 -4 -49 -3q-34 0 -66 8q-53 13 -86.5 56t-33.5 102zM-100 -375q0 -29 19 -41q9 -6 21 -6t27 7q29 13 49 50l97 172q-213 -84 -213 -182zM67 137q9 -27 48 -26q70 0 162 78.5t186 228.5l162 282q28 52 28 91t-30 63q-26 20 -58 20 q-36 0 -80 -26q-59 -33 -98 -103l-297 -518q-26 -50 -25 -76q0 -8 2 -14z" />
<glyph unicode="h" d="M-258 0l850 1475h213l-340 -592q156 162 297 161q96 0 136 -78q16 -31 16 -69q0 -58 -37 -131l-308 -539q-26 -50 -25 -76q0 -8 2 -14q9 -27 48 -26q123 0 397 319l15 16q23 -10 46 -31.5t33 -41.5q-338 -393 -555 -393q-127 0 -171 92q-17 36 -17 75q0 63 43 136 l277 481q29 50 29 79q0 24 -19 34q-10 6 -24 5q-59 0 -179 -112q-88 -80 -188 -207l-324 -563h-215z" />
<glyph unicode="i" horiz-adv-x="526" d="M-120 72q-17 36 -17 75q0 63 43 136l428 741h213l-457 -797q-26 -50 -25 -76q0 -8 2 -14q9 -27 48 -26q123 0 397 319l14 16q23 -10 46.5 -31.5t33.5 -41.5q-338 -393 -555 -393q-127 0 -171 92zM451 1255q0 53 35.5 89t86.5 36q53 0 89 -36.5t36 -88t-35.5 -87 t-89 -35.5t-88 35.5t-34.5 86.5z" />
<glyph unicode="j" horiz-adv-x="575" d="M-647 -414q0 225 471 365l244 428q-47 35 -68 67q68 78 140.5 172.5t115.5 152.5t106.5 146.5t75.5 106.5h213l-583 -999q225 96 493 405l14 16q23 -10 46.5 -31.5t33.5 -41.5q-332 -385 -671 -492l-164 -280q-45 -76 -107.5 -122t-124.5 -56q-25 -4 -49 -3q-34 0 -65 8 q-53 13 -87 56t-34 102zM-475 -375q0 -29 19 -41q9 -6 21 -6t27 7q29 13 50 50l98 172q-215 -84 -215 -182zM504 1255q0 53 35.5 89t87.5 36q53 0 89 -36.5t36 -88t-36 -87t-89.5 -35.5t-88 35.5t-34.5 86.5z" />
<glyph unicode="k" horiz-adv-x="882" d="M-258 0l850 1475h213l-303 -527q63 57 138 83q48 16 89 17q23 0 44 -6q58 -14 98 -54q35 -35 36 -101q0 -8 -1 -18q-5 -79 -62 -175l-58 -98q-76 -131 -185 -200q-91 -57 -183 -56q-19 0 -39 2v-88q0 -68 26.5 -105.5t65.5 -37.5q123 0 397 319l15 16q23 -10 46 -31.5 t34 -41.5q-338 -393 -555 -393q-123 0 -165 63t-42 211v170l-244 -424h-215zM268 541q32 -75 102 -76q19 0 41 6q101 27 154 119l103 176q20 35 20 61q0 27 -22 43q-19 15 -45 15q-49 0 -121 -54q-82 -63 -170 -184z" />
<glyph unicode="l" horiz-adv-x="526" d="M-120 72q-17 36 -17 75q0 63 43 136l688 1192h213l-717 -1248q-26 -50 -25 -76q0 -8 2 -14q9 -27 48 -26q123 0 397 319l14 16q23 -10 46.5 -31.5t33.5 -41.5q-338 -393 -555 -393q-127 0 -171 92z" />
<glyph unicode="m" horiz-adv-x="1536" d="M-258 0l592 1024h213l-127 -221q193 242 366 241q90 0 133 -72q19 -33 19 -76q0 -49 -27 -110q203 258 381 258q96 0 136 -78q16 -31 16 -69q0 -58 -37 -131l-307 -539q-26 -50 -26 -76q0 -8 2 -14q9 -27 48 -26q123 0 398 319l14 16q23 -10 46.5 -31.5t33.5 -41.5 q-338 -393 -555 -393q-127 0 -171 92q-17 36 -17 75q0 63 42 136l277 481q29 50 29 79q0 24 -19 34q-10 6 -23 5q-59 0 -182 -112q-133 -125 -295 -352l-239 -418h-217l440 764q28 50 29 79q0 23 -19 34q-10 6 -23 5q-59 0 -181 -112q-129 -121 -287 -340l-248 -430h-215z " />
<glyph unicode="n" d="M-258 0l592 1024h213l-80 -139q154 160 295 159q96 0 136 -78q16 -31 16 -69q0 -58 -37 -131l-308 -539q-26 -50 -25 -76q0 -8 2 -14q9 -27 48 -26q123 0 397 319l15 16q23 -10 46 -31.5t33 -41.5q-338 -393 -555 -393q-127 0 -171 92q-17 36 -17 75q0 63 43 136l277 481 q29 50 29 79q0 24 -19 34q-10 6 -24 5q-59 0 -179 -112q-86 -78 -186 -203l-326 -567h-215z" />
<glyph unicode="o" horiz-adv-x="927" d="M-53 80q-24 47 -25 108q0 103 70 246l92 158l104 182q88 154 186.5 216.5t227.5 62.5q100 0 168 -62.5t76 -160.5q1 -11 1 -23q0 -88 -54 -189l-201 -346q180 4 321 158l15 16q23 -10 46 -31.5t34 -41.5q-78 -92 -206 -149.5t-231 -57.5h-47q-137 -174 -324 -194 q-25 -3 -48 -2q-148 0 -205 110zM133 137q26 -19 57 -19q36 0 80 25q53 29 86 86l2 4q-20 35 -20 72q0 53 37 90t88 37h10l156 266q44 74 43 127q0 37 -21 64q-23 29 -58 29q-29 0 -67 -21q-68 -37 -123 -131l-102 -174l-162 -281q-37 -66 -37 -111q0 -41 31 -63z" />
<glyph unicode="p" horiz-adv-x="923" d="M-516 -451l850 1475h213l-43 -74q63 57 138 81q46 15 87 15q24 0 46 -6q58 -14 97 -54q34 -35 35 -100q0 -9 -1 -18q-5 -78 -62 -174l-236 -403q-10 -16 -38.5 -72.5t-49.5 -87.5q190 68 389 299l15 16q57 -16 80 -73q-156 -182 -316 -285.5t-371 -107.5h-12 q-86 0 -144.5 43t-74.5 86l-14 43l121 57q29 -54 71 -54q3 0 6 1q47 4 76 53l322 557q13 23 13 42q0 26 -24 46q-21 17 -49 17q-48 0 -116 -50q-76 -53 -156 -164l-637 -1108h-215z" />
<glyph unicode="q" horiz-adv-x="882" d="M-136 70q-6 22 -7 47q0 77 59 184l289 498q66 113 170 179t194 66q94 0 159 -66.5t65 -137.5h118l-413 -709q213 117 370 299l15 16q23 -10 46 -31.5t34 -41.5q-229 -264 -557 -398l-3 -4q10 0 15 -2q61 -25 83 -116q6 -27 6 -54q0 -68 -38 -143l-76 -133 q-115 -203 -256 -215q-9 -1 -17 -1q-89 0 -132 81q-24 45 -24 96q0 71 46 151l287 502q-178 -158 -299 -157q-108 0 -134 90zM104 152q7 -3 16 -3q76 0 300 205l223 389q9 27 9 50q0 51 -48 71q-21 9 -42 9q-51 0 -109 -48q-37 -31 -66 -80l-256 -446q-2 -4 -6 -10 q-41 -68 -41 -104q0 -25 20 -33zM156 -530q6 -6 14 -7q21 0 55 43q12 16 23 35l94 166q37 67 37 110q0 40 -33 56l-158 -272q-42 -71 -41 -107q0 -16 9 -24z" />
<glyph unicode="r" horiz-adv-x="868" d="M0 446q135 160 360 478l-18 24q-49 59 -49 128q0 16 3 32q13 88 101 168l111 -121q-34 -33 -34 -67q0 -27 22 -56l118 -143q39 -47 57 -84q14 -30 14 -71q0 -10 -1 -19q-4 -53 -39 -115l-213 -373q-26 -50 -25 -76q0 -8 2 -14q9 -27 48 -26q123 0 397 319l14 16 q23 -10 46.5 -31.5t33.5 -41.5q-338 -393 -555 -393q-127 0 -171 92q-17 36 -17 75q0 63 43 136l225 391q15 25 15 51q0 35 -27 70l-29 34q-240 -326 -352 -456q-53 34 -80 73z" />
<glyph unicode="s" horiz-adv-x="718" d="M-92 152l133 69q4 -8 10 -21.5t32 -35t58 -21.5q70 0 112 69t54 156t31.5 207.5t44.5 186.5q-231 -307 -303 -389q-53 35 -80 73q68 78 146.5 179.5t127 168t119 165t80.5 112.5l160 -86q-57 -119 -88 -268.5t-51.5 -296t-44.5 -221.5q143 98 256 231l14 16 q57 -16 80 -73q-299 -348 -592 -387q-2 0 -6 -2q-41 -4 -60 -4q-86 0 -144 43t-75 86z" />
<glyph unicode="t" horiz-adv-x="526" d="M-120 72q-17 36 -17 75q0 63 43 136l428 741h-195l62 102h192l201 349h213l-201 -349h176l-61 -102h-174l-457 -797q-26 -50 -25 -76q0 -8 2 -14q9 -27 48 -26q123 0 397 319l14 16q23 -10 46.5 -31.5t33.5 -41.5q-338 -393 -555 -393q-127 0 -171 92z" />
<glyph unicode="u" d="M-136 70q-6 22 -7 47q0 77 59 184l418 723h213l-416 -725q-2 -4 -6 -10q-41 -68 -41 -104q0 -25 20 -33q7 -3 16 -4q76 0 312 214l379 662h213l-455 -797q-26 -50 -25 -76q0 -8 2 -14q9 -27 48 -26q123 0 397 319l15 16q23 -10 46 -31.5t33 -41.5q-338 -393 -555 -393 q-98 0 -148 58q-38 44 -38 105q0 20 4 41q-213 -205 -350 -204q-108 0 -134 90z" />
<glyph unicode="v" horiz-adv-x="763" d="M-98 110q-1 10 -1 19q0 65 33 156l297 739h215l-284 -711q-51 -126 -51 -148q0 -4 2 -4q12 -1 110 146l477 717h193l-346 -516q-34 -71 -35 -113q0 -46 41 -57q13 -4 27 -4q57 0 131 59q20 16 39 37l14 16q23 -10 46.5 -31.5t33.5 -41.5q-84 -98 -176 -133 q-56 -21 -102 -22q-30 0 -56 9q-66 23 -96 82l-111 -166q-47 -72 -115.5 -114.5t-127.5 -44.5q-4 0 -7 -1q-54 0 -98 27q-47 29 -53 100z" />
<glyph unicode="w" horiz-adv-x="1355" d="M-121 72q-16 35 -16 74q0 63 43 137l430 741h211l-457 -797q-26 -50 -25 -76q0 -8 2 -14q9 -27 48 -26q70 0 163 78.5t187 230.5l350 604h211l-457 -797q-26 -50 -25 -76q0 -8 2 -14q9 -27 48 -26q80 0 194 118q-23 33 -22 76q0 53 37 90t88 37q27 0 51 -12 q170 250 295 604h137q-164 -487 -360 -752q182 0 327 158l15 16q23 -10 46 -31.5t34 -41.5q-78 -92 -206 -149.5t-231 -57.5q-51 0 -75 4q-184 -190 -394 -190q-80 0 -128 37.5t-58 99.5q-168 -137 -293 -137q-129 0 -172 92z" />
<glyph unicode="x" horiz-adv-x="983" d="M-49 2l440 487l47 338q-264 -346 -358 -454q-53 35 -80 73q154 180 346 439q102 160 197 159q70 0 91 -57q11 -29 11 -77q0 -45 -10 -107l-21 -129l306 350h157l-495 -567l-35 -230q-3 -21 -3 -37q0 -69 51 -69h7q109 8 318 252q25 27 49 57l14 16q23 -10 46.5 -31.5 t33.5 -41.5q-164 -190 -285 -291.5t-233 -101.5q-123 0 -163 78q-26 52 -26 134q0 42 6 91v8l-268 -289h-143z" />
<glyph unicode="y" horiz-adv-x="950" d="M-272 -414q0 225 469 365l116 201q-193 -172 -315 -172q-109 0 -134 90q-6 22 -7 47q0 77 59 184l418 723h213l-416 -725q-2 -4 -6 -10q-41 -68 -41 -104q0 -25 20 -33q7 -3 16 -3q77 0 316 220l377 655h213l-584 -999q225 96 494 405l14 16q23 -10 46.5 -31.5 t33.5 -41.5q-332 -385 -672 -492l-163 -280q-45 -76 -107.5 -122t-124.5 -56q-25 -4 -49 -3q-34 0 -66 8q-53 13 -86.5 56t-33.5 102zM-100 -375q0 -29 19 -41q9 -6 21 -6t27 7q29 13 49 50l99 172q-215 -84 -215 -182z" />
<glyph unicode="z" horiz-adv-x="950" d="M-272 -414q0 223 473 367q9 20 9 36q0 28 -25 49q-36 30 -88 30h-13h-4h-2l2 2l-14 127q166 55 332.5 191t246.5 275q45 78 45 131q0 41 -26 68q-15 15 -39 15q-125 0 -486 -433q-43 -53 -59 -71q-53 35 -80 73q33 39 117 144.5t138 167t134 137.5t160 112.5t160 36.5 q154 0 178 -143q5 -27 5 -56q0 -139 -114 -317q-164 -260 -448 -397q-12 -6 -23 -10l-8 -2q57 -47 66 -121q145 45 279 148.5t292 283.5l14 16q23 -10 46.5 -31.5t33.5 -41.5q-336 -387 -678 -494q-10 -35 -37 -84l-112 -196q-43 -76 -106.5 -122t-126.5 -56q-24 -4 -47 -3 q-36 0 -70 9q-55 14 -90 57t-35 102zM-100 -375q0 -29 19 -41q9 -6 21 -6t26 7q28 13 50 50l101 172q-217 -84 -217 -182z" />
<glyph unicode="{" horiz-adv-x="966" d="M-63.5 -211q-12.5 90 32.5 182l375 668q23 41 32 76t5 55.5t-14.5 36.5t-16.5 21.5t-10 7.5q18 6 50 20t91.5 63.5t96.5 112.5l340 578q68 117 177 177t222 60h196l-96 -168h-94q-86 0 -138 -32.5t-106 -122.5l-299 -508q-39 -66 -95 -111t-89 -57t-43 -12 q12 -8 22.5 -23.5t9.5 -68t-38 -117.5l-397 -705q-41 -76 -13.5 -130t103.5 -54h59l-96 -168h-29q-90 0 -157.5 64.5t-80 154.5z" />
<glyph unicode="|" horiz-adv-x="516" d="M-131 0l827 1434h189l-828 -1434h-188z" />
<glyph unicode="}" horiz-adv-x="1044" d="M-358 -430l96 168h94q86 0 138.5 32.5t105.5 123.5l321 552q39 66 95.5 111t89 57.5t43.5 12.5q-12 8 -22.5 23.5t-9.5 67.5t38 118l375 659q41 76 13 130t-104 54h-59l96 168h29q90 0 157.5 -64.5t80 -154.5t-32.5 -182l-375 -668q-23 -41 -32 -75.5t-5 -55t14.5 -37 t16.5 -21.5t10 -7q-18 -6 -50 -20.5t-91.5 -63.5t-95.5 -113l-340 -578q-68 -117 -177.5 -177t-222.5 -60h-196z" />
<glyph unicode="&#xaa;" d="M-120 72q-17 36 -17 75q0 63 43 136l299 516q66 113 170 179t194 66q98 0 164 -70q60 -65 60 -132v-13h120l-344 -602q-26 -50 -25 -76q0 -8 2 -14q9 -27 48 -26q123 0 397 319l15 16q23 -10 46 -31.5t33 -41.5q-338 -393 -555 -393q-80 0 -128 37.5t-56 101.5 q-170 -139 -295 -139q-127 0 -171 92zM67 137q9 -27 48 -26q70 0 160 75.5t184 223.5l166 290q28 52 28 91t-30 63q-26 20 -58 20q-36 0 -80 -26q-59 -33 -98 -103l-297 -518q-26 -50 -25 -76q0 -8 2 -14z" />
<glyph unicode="&#xad;" horiz-adv-x="1062" d="M133 467l82 143h733l-82 -143h-733z" />
<glyph unicode="&#xb2;" horiz-adv-x="956" d="M-143 0l80 137q172 39 293.5 92.5t248.5 167t230 287.5q72 121 20 186q-43 53 -123 11q-66 -35 -119 -123l-59 -94h-217l80 139q111 197 303 231q158 29 262 -63q117 -104 57 -279q-14 -41 -36 -82q-104 -188 -257 -304t-309 -169h375l-80 -137h-749z" />
<glyph unicode="&#xb3;" horiz-adv-x="937" d="M-155.5 -31.5q8.5 111.5 79.5 201.5h201q-86 -102 -86 -225q0 -76 70 -99q94 -31 196 74q41 43 78 105q76 139 51.5 233t-119.5 94l80 137q119 0 188.5 37t118.5 123q59 106 52.5 177t-74.5 71q-98 0 -186 -149l-43 -74h-218l56 100q88 154 186 216.5t227 62.5 q84 0 142.5 -42t81 -105.5t14.5 -141.5t-47 -146q-68 -119 -144.5 -176t-181.5 -75q53 -74 57.5 -169.5t-57.5 -213.5q-168 -291 -473 -291q-125 0 -191.5 82t-58 193.5z" />
<glyph unicode="&#xb9;" horiz-adv-x="702" d="M-164 0l82 143h176l387 670q-86 -47 -227 -86l-45 133l43 14q37 12 45 16l41 15q33 12 43 17.5t39 16.5t43 19.5t38.5 20.5t42 24.5t39 26.5t42.5 31l82 -187l-422 -731h188l-82 -143h-555z" />
<glyph unicode="&#xba;" horiz-adv-x="927" d="M-53 80q-24 47 -25 108q0 103 70 246l92 158l104 182q88 154 186.5 216.5t227.5 62.5q100 0 168 -62.5t76 -160.5q1 -11 1 -23q0 -88 -54 -189l-201 -346q180 4 321 158l15 16q23 -10 46 -31.5t34 -41.5q-78 -92 -206 -149.5t-231 -57.5h-47q-137 -174 -324 -194 q-25 -3 -48 -2q-148 0 -205 110zM133 137q26 -19 57 -19q36 0 80 25q53 29 86 86l2 4q-20 35 -20 72q0 53 37 90t88 37h10l156 266q44 74 43 127q0 37 -21 64q-23 29 -58 29q-29 0 -67 -21q-68 -37 -123 -131l-102 -174l-162 -281q-37 -66 -37 -111q0 -41 31 -63z" />
<glyph unicode="&#x152;" horiz-adv-x="2557" d="M1190 307q0 301 218 502q208 191 477 191q14 0 28 -1q-41 82 -41 166q0 162 102.5 269.5t257.5 107.5q145 0 245.5 -83t100.5 -224q0 -74 -31.5 -138.5t-62.5 -92.5l-31 -27l-114 121q4 0 20.5 14t34.5 51t18 82q0 109 -94 146q-35 15 -69 14q-56 0 -109 -39 q-90 -66 -90 -207q0 -66 31.5 -119t55 -72.5t46.5 -31.5q0 -2 4 -2l-63 -111q-31 10 -68 29q-75 27 -151 27q-81 0 -163 -30q-161 -58 -266.5 -205.5t-105.5 -332.5q0 -170 125 -276.5t289 -106.5q109 0 205 57.5t144 142.5t56 181q1 11 1 21q0 84 -58 155l125 88 q97 -114 97 -260q0 -142 -74 -261q-75 -120 -213 -202.5t-298 -82.5q-248 0 -413.5 147t-165.5 393zM41 205q16 109 86 229l340 590h104q-4 27 -3 54q0 126 77 257q133 233 348 271q39 7 76 7q126 0 221 -83q107 -92 107 -230q0 -34 -6 -71q-14 -78 -62 -160l-164 -285 q182 35 344 181l60 -117q-219 -201 -486 -205l-227 -397q-154 -266 -387 -344q-80 -28 -150 -28q-94 0 -169 50q-113 75 -113 221q0 29 4 60zM258 72q37 -34 91 -34q41 0 91 19q121 45 195 172l254 443q-195 61 -279 223l-336 -584q-53 -91 -52 -153q0 -53 36 -86zM769 954 q46 -123 189 -163l207 358q45 76 45 141q0 51 -28 94q-43 68 -118 69q-15 0 -32 -3q-129 -20 -221 -193q-58 -118 -58 -211q0 -50 16 -92z" />
<glyph unicode="&#x153;" horiz-adv-x="1720" d="M882 113q-31 56 -31 118q0 86 59 185l223 383q141 246 399 245q137 0 194 -98q23 -41 23 -90q0 -70 -47 -156l-31 -53q-57 -98 -134 -162.5t-152 -86.5q-72 -21 -138 -20h-7q-69 1 -124 23l-20 -36q-43 -84 -43 -141q0 -30 12 -51q35 -62 142 -62q109 0 243.5 90 t255.5 229l15 16q23 -10 46 -31.5t33 -41.5q-147 -172 -318 -282.5t-339 -110.5q-188 0 -261 133zM1178 506q35 -12 71 -14q6 0 12 -1q31 0 67 9q44 10 88 48t81 99l31 53q40 71 41 117q0 35 -25 55q-19 16 -44 17q-36 0 -85 -33q-57 -37 -100 -111zM-53 80q-24 47 -25 108 q0 103 70 246l92 158l104 182q88 154 186.5 216.5t227.5 62.5q100 0 168 -62.5t76 -160.5q1 -11 1 -23q0 -88 -54 -189l-201 -346q180 4 321 158l15 16q23 -10 46 -31.5t34 -41.5q-78 -92 -206 -149.5t-231 -57.5h-47q-137 -174 -324 -194q-25 -3 -48 -2q-148 0 -205 110z M133 137q26 -19 57 -19q36 0 80 25q53 29 86 86l2 4q-20 35 -20 72q0 53 37 90t88 37h10l156 266q44 74 43 127q0 37 -21 64q-23 29 -58 29q-29 0 -67 -21q-68 -37 -123 -131l-102 -174l-162 -281q-37 -66 -37 -111q0 -41 31 -63z" />
<glyph unicode="&#x2000;" horiz-adv-x="923" />
<glyph unicode="&#x2001;" horiz-adv-x="1847" />
<glyph unicode="&#x2002;" horiz-adv-x="923" />
<glyph unicode="&#x2003;" horiz-adv-x="1847" />
<glyph unicode="&#x2004;" horiz-adv-x="614" />
<glyph unicode="&#x2005;" horiz-adv-x="460" />
<glyph unicode="&#x2006;" horiz-adv-x="307" />
<glyph unicode="&#x2007;" horiz-adv-x="307" />
<glyph unicode="&#x2008;" horiz-adv-x="229" />
<glyph unicode="&#x2009;" horiz-adv-x="368" />
<glyph unicode="&#x200a;" horiz-adv-x="102" />
<glyph unicode="&#x2010;" horiz-adv-x="1062" d="M133 467l82 143h733l-82 -143h-733z" />
<glyph unicode="&#x2011;" horiz-adv-x="1062" d="M133 467l82 143h733l-82 -143h-733z" />
<glyph unicode="&#x2012;" horiz-adv-x="1062" d="M133 467l82 143h733l-82 -143h-733z" />
<glyph unicode="&#x2013;" horiz-adv-x="1259" d="M133 467l82 143h938l-82 -143h-938z" />
<glyph unicode="&#x2014;" horiz-adv-x="1679" d="M133 467l82 143h1348l-82 -143h-1348z" />
<glyph unicode="&#x2018;" horiz-adv-x="393" d="M33 1223q0 104 84 178t180 74h14l-4 -82h-12q-37 0 -77 -20.5t-58 -49.5q47 -8 74.5 -35.5t27.5 -66.5q0 -55 -32.5 -84t-75.5 -29q-47 0 -84 31t-37 84z" />
<glyph unicode="&#x2019;" horiz-adv-x="417" d="M205 1096l4 82h12q37 0 77 20.5t58 48.5q-47 8 -74.5 36t-27.5 67q0 55 32.5 83.5t75.5 28.5q47 0 84 -30.5t37 -83.5q0 -104 -84 -178t-180 -74h-14z" />
<glyph unicode="&#x201c;" horiz-adv-x="464" d="M43 1223q0 104 84 178t180 74h15l-5 -82h-12q-37 0 -77 -20.5t-58 -49.5q47 -8 74.5 -35.5t27.5 -66.5q0 -55 -32.5 -84t-75.5 -29q-47 0 -84 31t-37 84zM350 1223q0 104 84 178t180 74h15l-4 -82h-13q-37 0 -76.5 -20.5t-58.5 -49.5q47 -8 75 -35.5t28 -66.5 q0 -55 -33 -84t-76 -29q-47 0 -84 31t-37 84z" />
<glyph unicode="&#x201d;" horiz-adv-x="724" d="M205 1108l4 82h12q37 0 77 20.5t58 49.5q-47 8 -74.5 35.5t-27.5 66.5q0 55 32.5 84t75.5 29q47 0 84 -31t37 -84q0 -104 -84 -178t-180 -74h-14zM512 1108l4 82h12q37 0 77 20.5t59 49.5q-47 8 -75 35.5t-28 66.5q0 55 33 84t76 29q47 0 84 -31t37 -84q0 -104 -84 -178 t-181 -74h-14z" />
<glyph unicode="&#x2022;" horiz-adv-x="649" d="M137 506q0 78 55.5 133t133 55t133 -55t55.5 -133t-55.5 -133.5t-133 -55.5t-133 55.5t-55.5 133.5z" />
<glyph unicode="&#x2026;" horiz-adv-x="1480" d="M1040 96q0 49 34 84t83 35t84 -35t35 -84t-35 -82.5t-84 -33.5t-83 33.5t-34 82.5zM547 96q0 49 34 84t83 35t84 -35t35 -84t-35 -82.5t-84 -33.5t-83 33.5t-34 82.5zM53 96q0 49 34 84t83 35t84 -35t35 -84t-35 -82.5t-84 -33.5t-83 33.5t-34 82.5z" />
<glyph unicode="&#x202f;" horiz-adv-x="368" />
<glyph unicode="&#x2039;" horiz-adv-x="1095" d="M18 436l72 127l1071 481l-114 -204l-805 -383l389 -334l-82 -143z" />
<glyph unicode="&#x203a;" horiz-adv-x="1095" d="M-66 -20l115 204l805 383l-389 334l82 143l530 -456l-71 -127z" />
<glyph unicode="&#x205f;" horiz-adv-x="460" />
<glyph unicode="&#x2122;" horiz-adv-x="3252" d="M1352 883q3 80 53 166q49 84 135 137t192.5 82.5t218 56.5t240.5 81t231 134l109 -186l-57 -101q193 242 366 242q90 0 132 -73q19 -33 20 -75q0 -49 -27 -110q203 258 381 258q96 0 136 -79q16 -31 16 -68q0 -58 -37 -131l-789 -1367q-25 -32 -25 -84q0 -8 1 -16 q4 -63 53 -88l-90 -156q-84 43 -122 119q-31 62 -31 128q0 14 1 29q8 81 54 159l733 1273q29 50 29 79q0 24 -19 34q-10 6 -23 6q-59 0 -180 -112q-135 -125 -299 -355l-2 -2l-495 -864h-218l701 1214q28 50 28 80q0 23 -18 33q-10 6 -23 6q-60 0 -184 -114 q-129 -119 -282 -334l-508 -885h-219l729 1266q-86 -43 -249 -85t-280.5 -88t-160.5 -120q-31 -63 -31 -109q0 -19 5 -36q17 -56 60 -83l45 -26l-79 -137q-57 23 -105.5 63.5t-83.5 98.5q-32 54 -32 126v13zM49 218q29 108 127 196l115 -111q-79 -81 -80 -158q0 -29 11 -57 q40 -104 190 -104q203 0 376 303l607 1059q-150 -80 -330 -80q-29 0 -119 4t-115 4q-133 0 -220 -67.5t-87 -155.5q0 -109 103 -166l-105 -131q-84 45 -127 118.5t-43 157.5q0 178 146.5 293t378.5 115q23 0 105.5 -1t107.5 -1q100 0 204.5 25.5t159.5 51.5l53 27l111 -186 h-2l-639 -1108q-250 -430 -590 -430q-117 0 -206 59t-125 148q-20 49 -20 103q0 44 13 92z" />
<glyph unicode="&#xe000;" horiz-adv-x="1045" d="M0 1045h1045v-1045h-1045v1045z" />
<glyph unicode="&#xfb01;" horiz-adv-x="1288" d="M642 72q-17 36 -17 75q0 63 43 136l428 741h213l-457 -797q-26 -50 -25 -76q0 -8 2 -14q9 -27 48 -26q123 0 397 319l14 16q23 -10 46.5 -31.5t33.5 -41.5q-338 -393 -555 -393q-127 0 -171 92zM1213 1255q0 53 35.5 89t86.5 36q53 0 89 -36.5t36 -88t-35.5 -87 t-89 -35.5t-88 35.5t-34.5 86.5zM-487 -612q-26 46 -27 97q0 69 47 150l881 1530q133 231 313 291q49 16 90 16q72 0 119 -51q44 -47 43 -117q0 -69 -41 -161q-14 -29 -31 -58l-342 -591q-133 -227 -430 -383q358 27 613 319l14 16q23 -10 46 -31.5t34 -41.5 q-283 -328 -733 -355q14 -40 13 -80q0 -67 -38 -135l-160 -280q-115 -201 -258 -215q-9 -1 -17 -1q-89 0 -136 81zM-322 -530q8 -7 18 -7q23 0 56 39q14 16 27 39l178 314q35 66 35 106q0 36 -27 53h-18l-242 -413q-38 -66 -38 -102q-1 -19 11 -29zM33 164q219 96 403 414 l332 575q38 70 38 107q0 25 -18 36q-10 6 -21 7q-35 0 -87 -56q-37 -37 -70 -92z" />
<glyph unicode="&#xfb02;" horiz-adv-x="1288" d="M642 72q-17 36 -17 75q0 63 43 136l688 1192h213l-717 -1248q-26 -50 -25 -76q0 -8 2 -14q9 -27 48 -26q123 0 397 319l14 16q23 -10 46.5 -31.5t33.5 -41.5q-338 -393 -555 -393q-127 0 -171 92zM-487 -612q-26 46 -27 97q0 69 47 150l881 1530q133 231 313 291 q49 16 90 16q72 0 119 -51q44 -47 43 -117q0 -69 -41 -161q-14 -29 -31 -58l-342 -591q-133 -227 -430 -383q358 27 613 319l14 16q23 -10 46 -31.5t34 -41.5q-283 -328 -733 -355q14 -40 13 -80q0 -67 -38 -135l-160 -280q-115 -201 -258 -215q-9 -1 -17 -1q-89 0 -136 81z M-322 -530q8 -7 18 -7q23 0 56 39q14 16 27 39l178 314q35 66 35 106q0 36 -27 53h-18l-242 -413q-38 -66 -38 -102q-1 -19 11 -29zM33 164q219 96 403 414l332 575q38 70 38 107q0 25 -18 36q-10 6 -21 7q-35 0 -87 -56q-37 -37 -70 -92z" />
<glyph unicode="&#xfb03;" horiz-adv-x="2050" d="M1404 72q-17 36 -17 75q0 63 43 136l428 741h213l-457 -797q-26 -50 -25 -76q0 -8 2 -14q9 -27 48 -26q123 0 397 319l14 16q23 -10 46.5 -31.5t33.5 -41.5q-338 -393 -555 -393q-127 0 -171 92zM1975 1255q0 53 35.5 89t86.5 36q53 0 89 -36.5t36 -88t-35.5 -87 t-89 -35.5t-88 35.5t-34.5 86.5zM275 -612q-26 46 -27 97q0 69 47 150l881 1530q133 231 313 291q49 16 90 16q72 0 119 -51q44 -47 43 -117q0 -69 -41 -161q-14 -29 -31 -58l-342 -591q-133 -227 -430 -383q358 27 613 319l14 16q23 -10 46 -31.5t34 -41.5 q-283 -328 -733 -355q14 -40 13 -80q0 -67 -38 -135l-160 -280q-115 -201 -258 -215q-9 -1 -17 -1q-89 0 -136 81zM440 -530q8 -7 18 -7q23 0 56 39q14 16 27 39l178 314q35 66 35 106q0 36 -27 53h-18l-242 -413q-38 -66 -38 -102q-1 -19 11 -29zM795 164q219 96 403 414 l332 575q38 70 38 107q0 25 -18 36q-10 6 -21 7q-35 0 -87 -56q-37 -37 -70 -92zM-487 -612q-26 46 -27 97q0 69 47 150l881 1530q133 231 313 291q49 16 90 16q72 0 119 -51q44 -47 43 -117q0 -69 -41 -161q-14 -29 -31 -58l-342 -591q-133 -227 -430 -383q358 27 613 319 l14 16q23 -10 46 -31.5t34 -41.5q-283 -328 -733 -355q14 -40 13 -80q0 -67 -38 -135l-160 -280q-115 -201 -258 -215q-9 -1 -17 -1q-89 0 -136 81zM-322 -530q8 -7 18 -7q23 0 56 39q14 16 27 39l178 314q35 66 35 106q0 36 -27 53h-18l-242 -413q-38 -66 -38 -102 q-1 -19 11 -29zM33 164q219 96 403 414l332 575q38 70 38 107q0 25 -18 36q-10 6 -21 7q-35 0 -87 -56q-37 -37 -70 -92z" />
<glyph unicode="&#xfb04;" horiz-adv-x="2050" d="M1404 72q-17 36 -17 75q0 63 43 136l688 1192h213l-717 -1248q-26 -50 -25 -76q0 -8 2 -14q9 -27 48 -26q123 0 397 319l14 16q23 -10 46.5 -31.5t33.5 -41.5q-338 -393 -555 -393q-127 0 -171 92zM275 -612q-26 46 -27 97q0 69 47 150l881 1530q133 231 313 291 q49 16 90 16q72 0 119 -51q44 -47 43 -117q0 -69 -41 -161q-14 -29 -31 -58l-342 -591q-133 -227 -430 -383q358 27 613 319l14 16q23 -10 46 -31.5t34 -41.5q-283 -328 -733 -355q14 -40 13 -80q0 -67 -38 -135l-160 -280q-115 -201 -258 -215q-9 -1 -17 -1q-89 0 -136 81z M440 -530q8 -7 18 -7q23 0 56 39q14 16 27 39l178 314q35 66 35 106q0 36 -27 53h-18l-242 -413q-38 -66 -38 -102q-1 -19 11 -29zM795 164q219 96 403 414l332 575q38 70 38 107q0 25 -18 36q-10 6 -21 7q-35 0 -87 -56q-37 -37 -70 -92zM-487 -612q-26 46 -27 97 q0 69 47 150l881 1530q133 231 313 291q49 16 90 16q72 0 119 -51q44 -47 43 -117q0 -69 -41 -161q-14 -29 -31 -58l-342 -591q-133 -227 -430 -383q358 27 613 319l14 16q23 -10 46 -31.5t34 -41.5q-283 -328 -733 -355q14 -40 13 -80q0 -67 -38 -135l-160 -280 q-115 -201 -258 -215q-9 -1 -17 -1q-89 0 -136 81zM-322 -530q8 -7 18 -7q23 0 56 39q14 16 27 39l178 314q35 66 35 106q0 36 -27 53h-18l-242 -413q-38 -66 -38 -102q-1 -19 11 -29zM33 164q219 96 403 414l332 575q38 70 38 107q0 25 -18 36q-10 6 -21 7q-35 0 -87 -56 q-37 -37 -70 -92z" />
</font>
</defs>
</svg>
